<svg width="179" height="179" viewBox="0 0 179 179" fill="none" xmlns="http://www.w3.org/2000/svg">
<path d="M89.5 179C138.929 179 179 138.929 179 89.5C179 40.0705 138.929 0 89.5 0C40.0705 0 0 40.0705 0 89.5C0 138.929 40.0705 179 89.5 179Z" fill="#D7F6F3"/>
<path d="M109.51 68.4445C109.092 67.8537 108.628 67.3096 108.118 66.8588C96.0689 56.039 96.3009 47.8309 97.4919 43.9134C98.0951 41.9546 99.1313 40.3379 100.369 39.1098C102.611 44.5819 105.597 52.5413 105.628 52.6345C105.983 53.5673 106.818 54.2357 107.808 54.3756C108.798 54.5155 109.773 54.0803 110.36 53.2719C110.67 52.8366 117.955 42.4832 113.16 34.8347C111.366 31.9588 108.241 30.5907 104.607 31.0727C103.926 31.1659 103.23 31.3214 102.565 31.5235C100.539 28.632 97.8784 26.5644 95.0789 25.8027C92.0164 24.9632 89.0003 25.6472 86.34 27.777C83.3548 30.1555 81.6999 34.2284 81.6844 39.2497C81.6535 46.9293 85.3192 54.8731 91.0265 59.5057C91.6607 60.0187 92.3722 60.5939 93.1455 61.2002C96.3472 63.7497 101.281 67.6672 105.303 71.9423C106.277 73.5746 106.571 75.8909 105.736 76.8236C105.086 77.5543 104.143 77.974 103.168 78.0051C102.689 78.0051 101.761 77.9274 101.034 77.1812C100.956 77.1034 100.864 77.0412 100.771 76.9635C99.8892 76.0308 98.8838 75.1447 97.7392 74.3363C89.7891 68.6932 76.3637 67.4806 64.2994 71.3049C52.1887 75.1447 43.4035 83.1818 39.5676 93.9239C39.1964 94.981 39.5058 96.1624 40.3565 96.9086C41.2072 97.6548 42.4136 97.7792 43.4034 97.2351C43.6973 97.0796 46.4969 95.6028 50.9978 94.3747C53.3952 95.6339 64.578 101.184 78.5447 102.474C73.4561 112.159 75.5595 131.576 80.973 144.82H65.1038C63.6035 144.82 62.397 146.033 62.397 147.541C62.397 149.049 63.6035 150.261 65.1038 150.261H85.1954H105.736C107.236 150.261 108.442 149.049 108.442 147.541C108.442 146.033 107.236 144.82 105.736 144.82H86.866C80.7565 131.809 79.0705 111.957 83.6178 104.464C84.1127 103.655 84.6078 103.111 85.1027 102.738C92.4805 102.629 100.322 101.122 107.855 97.1263C113.732 94.0016 116.934 89.9908 117.367 85.1872C117.893 79.4042 114.243 73.6056 109.479 68.4756L109.51 68.4445ZM105.318 36.4359C106.834 36.2338 107.947 36.6536 108.597 37.6951C109.881 39.7472 109.448 42.5609 108.551 45.0638C107.483 42.3122 106.215 39.032 105.148 36.4515C105.21 36.4515 105.272 36.4359 105.318 36.4204V36.4359ZM92.3412 42.2966C91.5679 44.7995 91.0574 48.5616 92.3412 53.2408C88.7219 49.1057 87.0979 43.4937 87.1133 39.2497C87.1133 35.9695 88.0724 33.3268 89.7274 32.0054C90.6709 31.2437 91.6143 30.8706 92.5887 30.8706C92.9445 30.8706 93.3001 30.9172 93.6713 31.026C95.0943 31.4147 96.5483 32.5495 97.7856 34.1507C95.3109 36.1872 93.3311 39.0476 92.3412 42.2966ZM65.9545 76.4661C76.3174 73.1859 88.1187 74.1187 94.6458 78.7513C100.307 82.7776 101.652 89.4622 99.3478 93.2088C97.5536 96.1313 93.8415 96.3645 89.2013 93.8461C71.9865 84.5187 56.2875 86.9749 47.6878 89.6799C52.9002 81.6894 61.0051 78.0362 65.9545 76.4661ZM83.7726 97.204C74.8172 97.0952 66.6042 94.81 60.9587 92.7424C67.4858 92.3848 75.374 93.302 83.7726 97.204ZM112.015 84.6742C111.752 87.5035 109.541 90.053 105.442 92.2449C106.06 89.4778 105.844 86.322 104.73 83.2595C106.648 82.902 108.442 81.9226 109.757 80.4458C110.128 80.0416 110.422 79.5907 110.685 79.1244C111.66 81.0365 112.185 82.9175 112.031 84.6586L112.015 84.6742Z" fill="#E6007E"/>
</svg>
